<?xml version="1.0" encoding="UTF-8"?>
<svg id="lychees" xmlns="http://www.w3.org/2000/svg" version="1.1" viewBox="0 0 1024 1024">
  <defs>
    <style>
      .cls-1 {
        fill: none;
        stroke: #795944;
        stroke-width: 24.5px;
      }

      .cls-1, .cls-2, .cls-3 {
        stroke-miterlimit: 10;
      }

      .cls-4 {
        fill: #ff533b;
      }

      .cls-4, .cls-5 {
        stroke-width: 0px;
      }

      .cls-2 {
        fill: #bdf859;
        stroke: #bbe351;
      }

      .cls-5 {
        fill: #bbe351;
      }

      .cls-3 {
        fill: #fb7185;
        stroke: #000;
      }
    </style>
  </defs>
  <line class="cls-1" x1="537.8" y1="208.8" x2="581.1" y2="326.1"/>
  <line class="cls-1" x1="530.3" y1="214.9" x2="462.6" y2="320"/>
  <path class="cls-1" d="M468.9,163.4c15,32.8,44.9,54.8,77.8,56.5,28.1,1.5,56.1-17.6,56.1-17.6"/>
  <path class="cls-2" d="M651.6,206.9c-9,6.7-27.2,17.7-53.9,17.6-8.3,0-43-.2-50.8-15.8-8.9-17.8,19.7-51.2,52.1-63.3,14.1-5.2,27.1-5.8,35.5-6,8-.3,33.2-.4,64.9,11.6h0c-15.9,18.7-31.8,37.3-47.8,56h0Z"/>
  <path class="cls-5" d="M693.5,153.4c-11.3,5.2-23.2,10.4-34.9,14.7-17.9,6.2-35.1,14.2-52.7,21.2-11.7,4.6-23.6,9-35.9,12.1-6.2,1.5-12.4,2.8-18.9,3.3l-.3-.9c10.7-7.3,22.3-12.2,34.3-16.6,11.8-4.4,24-8.1,36-11.6,15.2-4.2,30.1-9.4,45.1-14.4,8.8-2.6,18.5-5.5,27.4-7.7h0Z"/>
  <polygon class="cls-4" points="583.9 642.2 499.2 724.1 384.9 752.6 271.7 720.1 189.9 635.5 161.3 521.2 193.8 408 278.5 326.1 392.7 297.6 506 330.1 587.8 414.7 616.3 529 583.9 642.2"/>
  <polygon class="cls-3" points="828 642.2 743.4 724.1 629.1 752.6 515.9 720.1 434 635.5 405.5 521.2 438 408 522.6 326.1 636.9 297.6 750.1 330.1 832 414.7 860.5 529 828 642.2"/>
</svg>